<?xml version="1.0" standalone="no"?>
<!DOCTYPE svg PUBLIC "-//W3C//DTD SVG 20010904//EN"
 "http://www.w3.org/TR/2001/REC-SVG-20010904/DTD/svg10.dtd">
<svg version="1.0" xmlns="http://www.w3.org/2000/svg"
 width="626.000000pt" height="521.000000pt" viewBox="0 0 626.000000 521.000000"
 preserveAspectRatio="xMidYMid meet">

<g transform="translate(0.000000,521.000000) scale(0.100000,-0.100000)"
fill="#000000" stroke="none">
<path d="M3200 4067 c-107 -62 -377 -218 -600 -346 -223 -129 -490 -283 -595
-344 -842 -486 -800 -460 -798 -486 2 -12 0 -20 -5 -18 -4 2 -56 33 -117 67
-60 34 -113 65 -118 67 -4 2 -6 -16 -5 -42 1 -36 4 -44 17 -40 9 2 23 0 31 -5
12 -8 12 -10 -5 -10 -11 0 -27 -5 -35 -10 -10 -6 -3 -8 22 -3 43 6 91 -3 83
-17 -3 -6 -25 -10 -48 -10 -23 0 -49 -5 -57 -11 -11 -7 11 -8 71 -3 58 4 89 3
93 -5 8 -12 -15 -18 -102 -25 -58 -4 -82 -10 -71 -20 2 -2 53 2 112 8 94 10
143 7 127 -7 -3 -3 -41 -9 -85 -15 l-80 -11 87 6 c55 3 88 1 88 -5 0 -10 -40
-17 -172 -28 -43 -3 -78 -11 -78 -17 0 -9 29 -8 193 9 48 6 57 4 57 -9 0 -9
-4 -18 -9 -21 -13 -8 -203 -9 -223 -1 -14 6 -18 2 -18 -18 0 -22 12 -32 70
-64 66 -36 70 -40 70 -74 l0 -36 48 5 c34 3 51 0 60 -10 11 -14 -1 -17 -95
-21 -7 0 -13 -6 -13 -13 0 -9 10 -10 37 -4 62 14 107 15 128 3 11 -6 18 -14
15 -16 -3 -3 -44 -7 -92 -9 l-88 -3 0 -29 c0 -26 2 -28 32 -22 18 3 72 8 121
12 72 6 87 4 87 -8 0 -8 -10 -14 -22 -14 -13 0 -67 -4 -121 -8 l-98 -8 3 -40
c3 -40 4 -41 121 -109 65 -38 122 -69 126 -69 8 0 220 117 237 131 7 6 15 4
22 -4 11 -13 -44 -50 -275 -183 -66 -38 -83 -52 -83 -70 0 -22 -8 -19 -112 42
-62 36 -116 70 -120 77 -4 7 -7 -22 -6 -63 0 -41 3 -63 5 -47 2 15 11 27 18
27 21 0 27 -18 8 -23 -10 -3 -2 -5 17 -6 35 -1 69 -15 59 -25 -2 -3 -28 -6
-57 -7 -30 -2 -52 -7 -52 -14 0 -8 17 -9 64 -2 62 10 121 4 112 -11 -4 -7 -55
-12 -153 -15 -19 -1 -23 -7 -23 -34 0 -30 2 -32 22 -24 36 13 218 24 218 13 0
-11 -42 -18 -163 -28 l-78 -7 3 -39 c3 -39 4 -40 125 -110 l122 -70 78 47 c43
26 97 58 121 72 l42 24 70 -38 c39 -20 78 -44 88 -53 9 -9 26 -22 37 -29 19
-11 19 -12 -2 -6 -13 4 -23 2 -23 -3 0 -5 17 -13 38 -17 42 -8 107 -33 101
-39 -2 -3 -35 4 -72 14 -56 16 -67 16 -67 5 0 -8 21 -26 48 -39 51 -27 43 -35
-13 -12 -19 8 -35 12 -35 7 0 -4 23 -14 50 -23 28 -9 48 -12 44 -7 -8 13 12
11 52 -6 19 -8 32 -10 29 -5 -3 5 -21 14 -39 20 -43 14 -138 62 -111 56 101
-23 150 -38 193 -59 19 -9 22 -18 22 -68 l0 -58 -52 19 c-29 10 -83 30 -120
44 -38 14 -68 22 -68 18 0 -6 56 -29 198 -80 35 -12 42 -19 41 -41 -1 -17 -3
-20 -6 -8 -2 9 -9 15 -14 12 -5 -4 -9 -2 -9 3 0 5 -30 19 -67 32 -38 12 -85
31 -106 41 l-38 18 3 -41 c3 -41 3 -41 122 -110 79 -46 124 -67 137 -63 10 4
19 11 19 16 0 5 7 9 15 9 8 0 15 5 15 10 0 6 6 10 14 10 7 0 48 21 90 46 l76
46 57 -33 c85 -47 123 -78 117 -93 -3 -7 2 -16 12 -20 14 -5 15 -4 4 9 -21 25
2 16 55 -21 28 -19 76 -52 108 -72 31 -20 57 -43 57 -50 0 -8 -5 -10 -12 -6
-10 6 -10 4 0 -7 15 -16 17 -183 2 -174 -5 3 -7 12 -4 20 4 10 -1 12 -18 8
-16 -3 -19 -2 -10 5 10 7 5 11 -20 16 -19 3 -54 19 -79 34 -24 15 -57 33 -72
40 -27 12 -28 11 -25 -15 2 -22 21 -37 118 -94 63 -37 119 -68 123 -68 5 -1
43 20 85 46 42 25 102 60 132 76 30 17 57 33 60 36 3 3 21 14 40 23 50 25 94
52 98 61 2 4 7 7 12 7 5 0 48 23 97 52 48 28 104 60 123 70 19 10 42 23 50 28
44 27 153 90 157 90 3 0 17 8 31 19 15 10 44 28 65 40 67 38 101 58 147 85 25
15 53 29 63 33 9 3 17 9 17 13 0 4 11 11 24 14 14 3 31 12 38 19 8 6 44 28 81
47 37 19 67 38 67 43 0 4 4 7 9 7 13 0 295 162 299 172 2 4 9 8 15 8 14 0 181
100 185 111 2 5 12 9 22 9 10 0 21 4 24 9 3 5 25 18 48 30 24 12 61 33 83 46
22 13 47 27 55 31 8 4 27 16 43 26 l27 19 0 188 c0 103 -3 190 -6 194 -3 3
-23 -5 -43 -17 -20 -13 -191 -112 -381 -221 -190 -109 -412 -237 -495 -285
-196 -114 -320 -186 -485 -280 -133 -76 -549 -318 -705 -409 -60 -35 -81 -53
-85 -73 l-5 -25 -115 65 c-63 36 -163 94 -222 128 -58 35 -109 64 -112 64 -4
0 -23 11 -44 24 -20 14 -60 37 -89 53 -28 15 -53 33 -55 38 -3 12 240 155 265
155 9 0 17 4 17 9 0 10 120 83 130 79 4 -2 78 -50 164 -108 l156 -105 0 -97
c0 -91 -8 -116 -26 -86 -5 7 -3 8 6 3 9 -6 11 -4 6 4 -5 7 -14 10 -21 7 -8 -3
-15 -2 -17 2 -2 4 -38 25 -80 46 -73 37 -103 65 -58 53 11 -3 18 -1 15 3 -3 5
18 10 47 12 42 2 53 7 54 21 1 10 0 12 -3 3 -5 -17 -109 -26 -124 -11 -7 7 -9
5 -7 -5 2 -9 -6 -16 -20 -18 -13 -2 -60 -25 -105 -51 -69 -39 -83 -51 -85 -75
l-4 -29 69 38 c37 21 77 44 89 52 18 12 32 6 142 -57 67 -39 126 -70 130 -70
8 0 157 85 567 322 234 136 566 328 680 393 217 125 787 455 853 495 40 24 78
52 83 61 8 17 11 366 2 382 -2 4 -16 -1 -31 -11 -15 -10 -108 -65 -207 -122
-350 -201 -712 -408 -830 -477 -211 -123 -308 -178 -390 -223 -44 -24 -91 -51
-105 -60 -14 -10 -155 -93 -315 -185 -159 -92 -296 -172 -302 -177 -7 -6 -13
-21 -13 -33 l0 -23 -40 21 c-40 22 -40 22 -19 39 11 10 64 41 117 70 53 28
189 107 302 173 113 67 315 185 450 262 135 77 301 173 370 213 69 40 139 80
155 90 345 197 703 406 714 416 11 10 13 52 12 200 -1 104 -4 190 -6 192 -3 3
-529 -297 -995 -568 -102 -59 -264 -153 -360 -208 -737 -421 -840 -483 -840
-508 0 -24 -1 -23 -62 14 -35 21 -107 62 -161 92 -53 30 -94 57 -90 61 8 8
352 207 406 235 52 27 27 7 -38 -31 -55 -32 -80 -55 -61 -55 4 0 347 196 579
332 45 26 67 45 63 53 -3 10 64 54 217 141 122 69 237 135 255 146 17 11 32
17 32 14 0 -2 -44 -30 -97 -62 -113 -65 -108 -62 -100 -70 4 -5 254 136 629
355 15 9 27 22 25 30 -1 9 49 44 133 93 111 64 136 83 138 103 2 14 0 25 -4
25 -4 0 -82 -43 -173 -96 -91 -53 -213 -124 -271 -157 -58 -33 -157 -90 -220
-127 -63 -37 -344 -199 -625 -360 -280 -161 -562 -323 -625 -360 -63 -37 -152
-89 -197 -114 -45 -26 -82 -51 -82 -54 6 -42 -3 -40 -103 20 -57 33 -116 67
-133 74 -16 7 -43 22 -59 32 l-28 20 68 40 c336 194 471 272 540 313 45 27 84
49 88 49 3 0 50 25 104 55 54 30 110 55 123 55 33 0 58 17 42 28 -9 5 105 77
325 204 185 108 346 200 357 204 11 5 64 34 118 66 54 32 103 56 108 52 16
-10 50 7 47 24 -2 11 38 39 135 95 117 67 137 82 137 103 0 13 -2 24 -5 24 -6
0 -423 -240 -1540 -885 -258 -149 -511 -295 -562 -324 -73 -41 -91 -56 -88
-71 3 -14 -2 -20 -16 -20 -10 0 -19 5 -19 10 0 6 -4 10 -8 10 -7 0 -151 80
-261 143 -22 14 -20 16 80 74 57 34 140 81 184 105 44 25 150 85 235 135 205
119 277 158 265 145 -5 -6 -37 -26 -70 -45 -230 -131 -287 -163 -340 -195 -72
-42 -70 -41 -63 -48 3 -3 106 53 229 124 123 71 269 155 324 187 118 68 113
64 97 74 -9 5 47 42 160 106 95 55 220 126 278 160 140 82 267 150 255 137 -5
-5 -64 -41 -130 -78 -66 -37 -149 -85 -184 -105 -35 -21 -68 -40 -75 -42 -6
-2 -8 -8 -4 -12 4 -4 73 31 155 78 140 81 416 241 475 276 15 9 27 22 25 30
-1 9 49 44 136 94 127 73 137 81 137 108 l0 29 -62 -39 c-35 -21 -436 -254
-893 -516 -1228 -707 -1219 -703 -1227 -717 -4 -7 -9 -21 -12 -31 -5 -16 -8
-16 -43 6 -70 44 -178 105 -226 128 -26 13 -46 27 -44 33 2 5 57 41 123 79
370 218 466 273 534 309 41 22 110 60 152 85 42 24 83 43 90 42 24 -5 59 12
56 28 -3 15 82 67 508 314 95 54 174 99 176 99 3 0 51 27 108 60 57 32 107 57
112 54 15 -10 49 7 46 23 -2 11 41 41 135 95 116 68 137 84 137 104 0 13 -1
24 -2 24 -2 -1 -91 -51 -198 -113z m210 -322 c0 -2 -15 -12 -32 -20 l-33 -16
24 21 c22 19 41 26 41 15z m-75 -44 c-6 -5 -37 -24 -70 -42 -69 -37 -60 -21
12 22 47 28 77 38 58 20z m720 -340 c-16 -14 -105 -63 -105 -58 0 5 101 66
110 67 2 0 0 -4 -5 -9z m-155 -91 c-24 -19 -40 -25 -40 -15 0 5 51 34 60 34 3
0 -6 -8 -20 -19z m-80 -45 c0 -2 -10 -9 -22 -15 -22 -11 -22 -10 -4 4 21 17
26 19 26 11z m-1375 -35 c-7 -11 -85 -53 -85 -46 0 4 81 56 88 56 2 0 0 -5 -3
-10z m1305 -5 c0 -2 -13 -11 -30 -20 -38 -19 -40 -11 -2 9 31 17 32 18 32 11z
m680 -71 c0 -35 -5 -40 -29 -25 -12 8 -12 12 -2 25 10 12 11 19 2 30 -10 12
-8 13 8 9 16 -4 21 -13 21 -39z m-3 -64 c-2 -24 -19 -21 -23 3 -1 9 4 17 11
17 8 0 13 -9 12 -20z m-129 -53 c49 -24 99 -46 111 -50 11 -3 21 -9 21 -15 0
-8 -638 -382 -653 -382 -4 0 -7 38 -7 85 0 59 4 85 12 85 9 0 9 3 0 12 -7 7
-12 16 -12 20 0 10 105 63 158 78 69 21 39 24 -38 4 -38 -10 -70 -22 -70 -27
0 -4 -4 -5 -10 -2 -5 3 -10 1 -10 -4 0 -6 -4 -11 -10 -11 -5 0 -10 4 -10 8 0
8 75 45 220 108 68 30 71 49 4 24 -15 -6 -29 -9 -31 -7 -3 4 29 17 187 74 l65
23 -52 -3 c-29 -2 -53 -3 -53 -1 0 4 60 22 77 23 6 1 52 -19 101 -42z m129 -1
c0 -11 -5 -13 -19 -5 -10 5 -18 12 -18 14 0 3 8 5 18 5 10 0 19 -7 19 -14z
m-472 -86 c-3 -5 -12 -10 -18 -10 -7 0 -6 4 3 10 19 12 23 12 15 0z m-865
-105 c0 -2 -13 -11 -30 -20 -38 -19 -40 -11 -2 9 31 17 32 18 32 11z m1470
-56 c0 -33 -3 -36 -21 -32 -16 4 -17 8 -7 14 10 7 10 9 1 9 -7 0 -13 5 -13 11
0 6 7 9 15 5 24 -9 17 14 -7 24 -22 8 -21 9 5 7 24 -1 27 -5 27 -38z m-1540
16 c0 -2 -10 -9 -22 -15 -22 -11 -22 -10 -4 4 21 17 26 19 26 11z m-50 -30 c0
-2 -13 -11 -30 -20 -38 -19 -40 -11 -2 9 31 17 32 18 32 11z m-1760 -70 c0
-35 0 -35 -42 -35 -29 0 -60 10 -95 30 -29 17 -53 32 -53 34 0 2 43 4 95 5
l95 2 0 -36z m3350 15 c0 -22 -8 -25 -30 -9 -12 9 -12 10 4 5 13 -5 17 -2 12
9 -3 8 -1 15 4 15 6 0 10 -9 10 -20z m-1700 -11 c-25 -17 -76 -42 -68 -34 13
14 62 44 73 44 6 0 3 -4 -5 -10z m-1362 -25 c2 -1 -33 -23 -77 -48 -66 -38
-81 -51 -81 -70 l0 -24 -40 21 c-47 26 -47 27 74 95 73 42 93 49 105 39 9 -6
17 -12 19 -13z m2941 -19 c50 -25 99 -45 107 -45 42 0 -2 -40 -111 -103 -335
-193 -517 -297 -521 -297 -3 0 -4 52 -3 115 1 63 5 112 10 110 4 -3 34 7 66
23 32 16 72 33 88 37 20 6 25 9 13 12 -17 4 -93 -18 -129 -38 -11 -5 -19 -6
-19 -1 0 5 42 28 93 52 50 23 110 51 132 62 l40 19 -35 -6 c-63 -13 -19 11 90
49 106 36 110 39 55 37 -26 -1 -27 1 -10 8 32 15 37 14 134 -34z m118 -1 c-2
-2 -12 -1 -22 3 -18 6 -18 7 1 13 17 7 33 -5 21 -16z m-3352 -24 c8 -13 -5
-13 -25 0 -13 8 -13 10 2 10 9 0 20 -4 23 -10z m404 -21 c11 -10 25 -19 30
-19 5 0 13 -5 17 -11 4 -8 0 -9 -15 -4 -12 3 -21 2 -21 -3 0 -6 19 -13 41 -17
44 -8 114 -33 108 -40 -2 -2 -29 3 -59 11 -65 17 -90 18 -90 3 0 -6 7 -8 16
-5 15 6 197 -45 219 -61 12 -9 14 -83 3 -83 -4 0 -42 12 -84 26 -42 14 -78 23
-81 21 -2 -3 33 -17 79 -32 84 -28 117 -45 85 -45 -13 0 -146 45 -219 75 -10
4 -18 3 -18 -2 0 -5 42 -23 93 -41 115 -41 165 -64 151 -69 -6 -2 -56 13 -110
33 -54 20 -113 37 -130 38 -17 2 -60 19 -95 38 -35 20 -86 48 -114 63 -27 15
-54 31 -59 35 -11 11 112 72 127 63 6 -3 7 -1 3 5 -9 15 30 34 57 28 12 -3 16
-3 9 0 -19 9 -5 23 17 17 11 -3 28 -13 40 -24z m-461 -28 c10 -6 7 -10 -12
-13 -18 -4 -26 -1 -26 8 0 16 18 18 38 5z m2317 -21 c13 -22 13 -50 0 -50 -8
0 -17 5 -20 10 -3 6 0 10 7 10 8 0 9 3 3 8 -13 10 -17 32 -6 32 6 0 13 -4 16
-10z m-212 -41 c32 -17 32 -18 11 -35 -18 -15 -18 -15 3 -5 33 17 44 14 127
-31 60 -33 74 -44 64 -53 -7 -7 -80 -50 -163 -98 -82 -47 -221 -126 -307 -176
-87 -50 -160 -91 -163 -91 -3 0 -5 54 -5 120 0 102 2 121 18 130 16 11 16 11
0 6 -10 -3 -18 0 -18 5 0 7 11 9 25 7 23 -5 35 5 18 15 -5 2 -1 2 7 -1 39 -13
78 -12 110 2 64 26 209 164 192 181 -4 3 8 3 27 0 21 -4 30 -2 26 5 -3 5 0 10
7 10 9 0 9 3 -2 10 -21 13 -3 12 23 -1z m217 -39 c0 -5 -7 -7 -15 -4 -8 4 -15
8 -15 10 0 2 7 4 15 4 8 0 15 -4 15 -10z m-2136 -9 c3 -5 -36 -12 -87 -15 -50
-4 -102 -10 -114 -13 -17 -4 -23 -1 -23 10 0 12 14 17 58 20 119 7 161 7 166
-2z m2131 -21 c3 -5 2 -10 -4 -10 -5 0 -13 5 -16 10 -3 6 -2 10 4 10 5 0 13
-4 16 -10z m-385 -17 c0 -13 -73 -90 -97 -102 -32 -16 -73 -14 -73 4 0 8 5 15
11 15 5 0 7 -4 4 -10 -3 -5 -1 -10 4 -10 6 0 11 5 11 11 0 6 7 8 16 5 8 -3 13
-2 10 3 -3 5 8 14 24 21 35 15 64 44 34 35 -14 -4 31 24 54 34 1 1 2 -2 2 -6z
m-1740 -43 c0 -19 -7 -20 -115 -20 -63 0 -115 4 -115 9 0 8 119 27 193 30 31
1 37 -2 37 -19z m1660 0 c0 -5 -5 -10 -11 -10 -5 0 -7 5 -4 10 3 6 8 10 11 10
2 0 4 -4 4 -10z m-1660 -68 l0 -38 -42 6 c-43 5 -121 41 -133 60 -4 6 26 10
84 10 l91 0 0 -38z m3128 -60 c3 -58 -7 -78 -24 -50 -4 7 -3 8 4 4 8 -5 12 1
12 18 0 13 -6 26 -12 29 -10 3 -10 8 2 21 13 16 12 20 -5 33 -20 15 -20 15 0
11 17 -3 20 -12 23 -66z m-2675 34 c60 -24 85 -41 75 -52 -3 -3 -23 4 -45 15
-121 66 -131 79 -30 37z m345 5 c9 -5 -10 -21 -62 -52 -66 -38 -76 -48 -76
-72 l0 -28 -40 23 c-24 14 -36 26 -30 32 15 15 174 106 185 106 6 0 16 -4 23
-9z m-434 -36 c8 -8 17 -15 20 -15 3 0 22 -12 43 -26 34 -23 35 -25 11 -19
-55 14 -26 -5 38 -24 66 -21 108 -40 88 -41 -6 0 -31 7 -54 15 -50 18 -90 19
-90 4 0 -6 6 -9 14 -6 7 3 49 -5 92 -18 123 -35 136 -42 132 -67 -2 -13 -7
-26 -13 -30 -6 -5 -5 -8 3 -8 19 0 14 -20 -5 -21 -17 -1 -17 -2 0 -6 9 -2 17
-11 17 -18 0 -12 -6 -12 -27 -4 -106 41 -213 76 -213 70 0 -4 54 -27 120 -51
66 -23 120 -47 120 -52 0 -12 -39 -1 -144 39 -74 29 -90 32 -100 20 -6 -8 -48
-35 -93 -61 -62 -36 -83 -53 -85 -71 -3 -24 -4 -24 -78 21 -41 25 -109 64
-150 86 -41 22 -79 43 -83 48 -5 4 65 49 155 100 90 51 183 106 208 121 53 33
54 34 74 14z m-364 -5 c0 -5 -4 -10 -9 -10 -6 0 -13 5 -16 10 -3 6 1 10 9 10
9 0 16 -4 16 -10z m2265 0 c3 -5 1 -10 -4 -10 -6 0 -11 5 -11 10 0 6 2 10 4
10 3 0 8 -4 11 -10z m-1333 -38 c10 -8 15 -18 13 -23 -3 -4 0 -11 6 -15 8 -4
9 -3 5 4 -15 25 16 9 109 -53 52 -36 100 -65 106 -65 6 0 9 -39 8 -104 -1 -84
-4 -103 -15 -99 -8 3 -11 9 -8 14 3 5 0 9 -6 9 -6 0 -8 4 -5 10 3 5 0 7 -8 5
-18 -7 -89 23 -82 35 3 5 0 12 -6 16 -8 5 -9 3 -4 -6 4 -7 4 -11 -1 -8 -5 2
-39 18 -77 36 -37 18 -88 45 -115 61 -26 16 -76 44 -111 63 -34 19 -63 38 -63
44 0 5 44 32 98 60 104 54 112 55 156 16z m1338 -2 c0 -5 -2 -10 -4 -10 -3 0
-8 5 -11 10 -3 6 -1 10 4 10 6 0 11 -4 11 -10z m660 -25 c0 -3 -19 -5 -42 -5
-42 1 -42 1 -18 14 22 13 60 7 60 -9z m-662 -33 c-3 -17 -7 -18 -28 -9 l-25
10 25 7 c14 5 19 8 12 9 -7 1 -10 6 -6 12 10 16 26 -5 22 -29z m771 -12 c43
-21 82 -36 86 -32 4 4 6 -2 4 -12 -3 -12 -58 -50 -159 -109 -360 -208 -482
-277 -492 -277 -5 0 -7 7 -4 16 3 9 6 57 6 107 0 104 -9 93 115 141 33 13 67
27 75 30 31 12 -57 -2 -102 -17 -27 -8 -48 -13 -48 -10 0 2 44 24 98 49 140
65 180 85 157 80 -11 -3 -33 -8 -50 -11 -29 -5 -29 -5 -5 6 39 18 213 78 228
79 7 0 48 -18 91 -40z m91 17 c0 -16 -3 -17 -15 -7 -8 7 -15 16 -15 20 0 3 7
7 15 7 8 0 15 -9 15 -20z m-1061 -44 c-11 -12 -9 -13 13 -8 19 5 47 -5 108
-35 45 -23 78 -46 73 -50 -7 -6 -213 -126 -551 -320 -51 -29 -94 -51 -96 -49
-2 2 -1 65 3 139 l6 135 27 0 c15 1 25 -2 22 -6 -7 -13 68 2 113 22 43 18 206
167 197 180 -2 4 6 5 18 3 13 -2 17 -1 9 2 -26 12 10 23 41 12 24 -8 27 -13
17 -25z m201 -13 c0 -5 -2 -10 -4 -10 -3 0 -8 5 -11 10 -3 6 -1 10 4 10 6 0
11 -4 11 -10z m-1 -36 c13 -12 -8 -10 -29 2 l-25 15 25 -7 c14 -3 27 -8 29
-10z m-403 -11 c-14 -4 -15 -7 -6 -13 9 -5 -2 -21 -36 -54 -39 -37 -56 -46
-84 -46 -32 1 -33 2 -17 14 14 11 15 15 5 20 -7 3 0 2 16 -1 24 -5 28 -3 23
10 -4 12 -2 14 10 10 11 -4 14 -2 9 5 -5 8 1 12 17 12 14 0 31 8 38 17 12 15
12 16 -6 10 -20 -7 -20 -7 -1 8 11 8 27 14 35 14 11 -1 10 -3 -3 -6z m-1960
-84 c3 -5 -12 -9 -33 -10 -21 0 -73 -4 -115 -7 -60 -6 -78 -5 -78 5 0 9 17 13
53 14 28 0 70 4 92 8 43 8 72 4 81 -10z m2598 -11 c-3 -4 -9 -8 -15 -8 -5 0
-9 4 -9 8 0 5 7 9 15 9 8 0 12 -4 9 -9z m-1844 -85 c0 -7 -2 -13 -4 -13 -6 0
-156 81 -156 85 0 1 36 -11 80 -28 44 -17 80 -36 80 -44z m-203 45 c21 -12 74
-43 119 -69 56 -34 90 -48 111 -46 17 1 29 6 25 11 -3 5 2 7 11 3 10 -4 16 -2
14 6 -1 7 6 11 15 11 10 -1 16 1 13 5 -6 11 131 91 155 91 25 0 26 -15 3 -25
-10 -3 -93 -51 -185 -106 -124 -74 -168 -106 -168 -120 0 -10 -2 -19 -5 -19
-9 0 -64 29 -125 65 -30 18 -83 48 -117 67 -34 18 -63 38 -64 43 -2 7 140 101
158 105 1 0 19 -10 40 -22z m-547 -28 c0 -19 -7 -20 -115 -20 -126 0 -154 15
-47 25 37 3 74 8 82 9 8 2 30 4 48 5 26 1 32 -3 32 -19z m0 -65 c0 -34 -1 -35
-40 -35 -38 0 -140 45 -140 63 0 4 41 7 90 7 l90 0 0 -35z m0 -71 c0 -14 -3
-15 -17 -3 -10 7 -20 15 -22 16 -2 2 5 3 17 3 14 0 22 -6 22 -16z m2260 6 c8
-5 12 -11 10 -14 -3 -2 -14 2 -24 10 -22 15 -10 19 14 4z m1 -70 c5 0 9 -11 9
-25 0 -14 -4 -25 -10 -25 -5 0 -10 7 -10 15 0 8 -6 12 -13 9 -8 -3 -13 3 -13
16 0 13 5 19 14 15 7 -3 18 -5 23 -5z m-187 -61 c-3 -5 4 -9 16 -9 16 0 161
-69 178 -85 3 -3 -616 -361 -640 -370 -16 -7 -17 3 -12 126 3 73 7 136 10 141
3 4 12 4 21 1 12 -5 14 -3 8 6 -6 10 -2 11 16 5 83 -29 201 37 286 159 15 22
36 43 48 47 23 8 78 -8 69 -21z m196 -19 c0 -5 -4 -10 -10 -10 -5 0 -10 5 -10
10 0 6 5 10 10 10 6 0 10 -4 10 -10z m-15 -30 c13 -6 15 -9 5 -9 -8 0 -22 4
-30 9 -18 12 -2 12 25 0z m-393 -38 c-6 -2 -12 -9 -12 -16 0 -17 -43 -53 -84
-70 -30 -12 -37 -12 -53 0 -17 13 -17 14 1 7 15 -5 18 -3 13 10 -4 10 -2 14 6
11 7 -2 30 5 52 17 36 19 37 20 10 15 l-30 -6 28 15 c15 9 33 13 39 9 7 -5 9
-2 5 8 -4 12 -1 14 16 10 12 -3 16 -7 9 -10z m-1300 -106 c14 -8 42 -19 62
-26 20 -6 36 -18 36 -26 0 -8 -2 -14 -4 -14 -5 0 -129 70 -135 76 -9 9 16 3
41 -10z"/>
<path d="M3816 2755 c-11 -8 -16 -15 -10 -15 5 0 18 7 28 15 11 8 16 15 10 15
-5 0 -18 -7 -28 -15z"/>
<path d="M3960 2390 c-9 -6 -10 -10 -3 -10 6 0 15 5 18 10 8 12 4 12 -15 0z"/>
<path d="M3920 2369 c0 -5 5 -7 10 -4 6 3 10 8 10 11 0 2 -4 4 -10 4 -5 0 -10
-5 -10 -11z"/>
<path d="M1646 2480 c12 -12 114 -52 114 -46 0 5 -109 56 -118 56 -3 0 -1 -5
4 -10z"/>
<path d="M1634 2459 c26 -16 139 -60 143 -55 2 2 -27 16 -64 31 -85 34 -103
40 -79 24z"/>
<path d="M1640 2415 c33 -19 50 -18 26 0 -11 8 -27 15 -35 15 -10 -1 -7 -6 9
-15z"/>
<path d="M1780 2110 c0 -6 6 -10 13 -11 6 0 30 -9 52 -20 36 -17 37 -19 10
-14 -34 6 -16 -8 25 -19 20 -6 22 -5 10 4 -12 9 -9 10 15 5 43 -9 30 -2 -52
33 -40 17 -73 27 -73 22z"/>
<path d="M1760 2091 c0 -10 50 -25 57 -18 2 3 -10 9 -26 15 -17 6 -31 7 -31 3z"/>
<path d="M1784 2045 c37 -22 168 -67 174 -60 3 3 3 5 0 5 -3 0 -41 13 -84 29
-118 43 -121 44 -90 26z"/>
<path d="M1950 2040 c8 -5 20 -10 25 -10 6 0 3 5 -5 10 -8 5 -19 10 -25 10 -5
0 -3 -5 5 -10z"/>
<path d="M1910 2030 c0 -6 7 -10 15 -10 8 0 15 2 15 4 0 2 -7 6 -15 10 -8 3
-15 1 -15 -4z"/>
<path d="M2280 2132 c0 -5 24 -25 53 -45 72 -52 104 -81 110 -103 4 -16 5 -16
6 3 1 14 -16 36 -51 65 -70 59 -118 91 -118 80z"/>
<path d="M2318 1973 c6 -2 18 -2 25 0 6 3 1 5 -13 5 -14 0 -19 -2 -12 -5z"/>
<path d="M2383 1973 c9 -2 23 -2 30 0 6 3 -1 5 -18 5 -16 0 -22 -2 -12 -5z"/>
<path d="M2418 1913 c7 -3 16 -2 19 1 4 3 -2 6 -13 5 -11 0 -14 -3 -6 -6z"/>
<path d="M3835 1880 c-3 -6 1 -7 9 -4 18 7 21 14 7 14 -6 0 -13 -4 -16 -10z"/>
<path d="M2970 1890 c0 -5 5 -10 10 -10 6 0 10 5 10 10 0 6 -4 10 -10 10 -5 0
-10 -4 -10 -10z"/>
<path d="M3236 1604 c-5 -14 -4 -15 9 -4 17 14 19 20 6 20 -5 0 -12 -7 -15
-16z"/>
<path d="M3395 3354 c-60 -36 -145 -85 -188 -110 -43 -25 -76 -48 -74 -51 5
-5 363 199 382 218 23 22 -17 4 -120 -57z"/>
<path d="M2380 2769 c-216 -124 -205 -117 -199 -124 6 -5 366 200 389 221 8 8
12 14 9 14 -2 0 -92 -50 -199 -111z"/>
<path d="M980 2780 c-24 -8 -23 -8 8 -9 17 -1 32 4 32 9 0 11 -5 11 -40 0z"/>
<path d="M2350 1790 c-9 -6 -10 -10 -3 -10 6 0 15 5 18 10 8 12 4 12 -15 0z"/>
<path d="M2420 1791 c0 -9 30 -24 36 -18 2 1 -6 8 -16 15 -11 7 -20 8 -20 3z"/>
<path d="M2420 1760 c0 -5 12 -17 26 -27 14 -10 47 -35 74 -55 27 -21 47 -31
44 -24 -7 18 -144 119 -144 106z"/>
<path d="M1670 1570 c0 -11 35 -27 111 -53 62 -20 114 -36 116 -34 2 3 -45 21
-104 42 -59 20 -111 42 -115 48 -5 8 -8 7 -8 -3z"/>
<path d="M1790 1552 c8 -5 26 -13 40 -16 17 -5 20 -4 10 2 -8 5 -26 13 -40 16
-17 5 -20 4 -10 -2z"/>
<path d="M1868 1543 c6 -2 18 -2 25 0 6 3 1 5 -13 5 -14 0 -19 -2 -12 -5z"/>
<path d="M2330 1268 c0 -7 17 -23 38 -35 54 -31 125 -94 115 -104 -4 -4 -26
-9 -48 -12 l-40 -4 46 -1 c46 -2 61 8 52 35 -7 19 -163 135 -163 121z"/>
<path d="M2350 1122 c0 -5 12 -14 26 -20 14 -7 23 -8 19 -2 -9 15 -45 32 -45
22z"/>
</g>
</svg>
